<svg width="136" height="32" viewBox="0 0 136 32" fill="none" xmlns="http://www.w3.org/2000/svg">
<path d="M5.09499 13.7506C5.75006 12.7431 6.64775 11.9244 7.78805 11.2947C8.95262 10.665 10.2749 10.3501 11.7549 10.3501C13.4775 10.3501 15.0302 10.7909 16.4131 11.6725C17.8203 12.5542 18.9242 13.8136 19.7249 15.4509C20.5498 17.063 20.9622 18.9395 20.9622 21.0806C20.9622 23.2217 20.5498 25.1234 19.7249 26.7859C18.9242 28.4232 17.8203 29.6952 16.4131 30.602C15.0302 31.5088 13.4775 31.9622 11.7549 31.9622C10.2506 31.9622 8.92836 31.6599 7.78805 31.0554C6.67201 30.4257 5.77432 29.6196 5.09499 28.6373V31.6222H0V3.66247H5.09499V13.7506ZM15.7581 21.0806C15.7581 19.8212 15.5033 18.738 14.9938 17.8312C14.5086 16.8992 13.8535 16.194 13.0286 15.7154C12.2324 15.2379 11.3278 14.9901 10.4083 14.9975C9.48638 14.9975 8.61296 15.2494 7.78805 15.7531C6.98741 16.2317 6.33234 16.937 5.82284 17.869C5.33761 18.801 5.09499 19.8967 5.09499 21.1562C5.09499 22.4156 5.33761 23.5113 5.82284 24.4433C6.33234 25.3753 6.98741 26.0932 7.78805 26.597C8.61296 27.0756 9.48638 27.3149 10.4083 27.3149C11.3545 27.3149 12.228 27.063 13.0286 26.5592C13.8535 26.0554 14.5086 25.3375 14.9938 24.4055C15.5033 23.4736 15.7581 22.3652 15.7581 21.0806ZM27.2481 8.19647C26.3504 8.19647 25.5983 7.9068 24.9917 7.32746C24.4094 6.72292 24.1183 5.97985 24.1183 5.09824C24.1183 4.21662 24.4094 3.48615 24.9917 2.9068C25.5983 2.30227 26.3504 2 27.2481 2C28.1458 2 28.8858 2.30227 29.468 2.9068C30.0746 3.48615 30.3779 4.21662 30.3779 5.09824C30.3779 5.97985 30.0746 6.72292 29.468 7.32746C28.8858 7.9068 28.1458 8.19647 27.2481 8.19647ZM29.7592 10.6902V31.6222H24.6642V10.6902H29.7592ZM46.7303 31.6222L39.8885 22.7053V31.6222H34.7935V3.66247H39.8885V19.5693L46.6576 10.6902H53.281L44.4012 21.194L53.3538 31.6222H46.7303ZM53.7248 21.1562C53.7248 18.9899 54.1494 17.1008 54.9986 15.4887C55.8477 13.8514 57.0244 12.5919 58.5287 11.7103C60.0329 10.8035 61.7555 10.3501 63.6965 10.3501C66.1954 10.3501 68.2577 11.005 69.8832 12.3149C71.533 13.5995 72.6369 15.4131 73.195 17.7557H67.7007C67.4095 16.8489 66.9122 16.1436 66.2086 15.6398C65.5292 15.1108 64.6801 14.8463 63.6611 14.8463C62.2054 14.8463 61.0529 15.4005 60.2038 16.5088C59.3546 17.5919 58.93 19.1411 58.93 21.1562C58.93 23.1461 59.3546 24.6952 60.2038 25.8035C61.0529 26.8866 62.2054 27.4282 63.6611 27.4282C65.7233 27.4282 67.0699 26.471 67.7007 24.5567H73.196C72.638 26.8237 71.534 28.6247 69.8842 29.9597C68.2344 31.2947 66.1722 31.9622 63.6975 31.9622C61.7565 31.9622 60.0339 31.5214 58.5297 30.6398C57.0374 29.7458 55.8149 28.4373 54.9996 26.8615C54.1504 25.2242 53.7258 23.3224 53.7258 21.1562H53.7248ZM81.0123 13.9395C81.6371 12.8622 82.5132 11.9656 83.5598 11.3325C84.6274 10.7028 85.8404 10.3879 87.1991 10.3879V15.9421H85.8526C84.2513 15.9421 83.0382 16.3325 82.2133 17.1133C81.4127 17.8942 81.0123 19.2544 81.0123 21.194V31.6222H75.9174V10.6902H81.0123V13.9395ZM102.822 28.6373C102.264 29.5945 101.354 30.4005 100.092 31.0554C98.8306 31.6851 97.472 32 96.0163 32C94.7547 32 93.6143 31.7355 92.5954 31.2065C91.5764 30.6776 90.7757 29.9471 90.1934 29.0151C89.6111 28.0831 89.32 27.0126 89.32 25.8035C89.32 23.864 90.0115 22.2771 91.3944 21.0428C92.8016 19.8086 94.9002 19.1914 97.6903 19.1914H102.822C102.773 17.8564 102.397 16.7985 101.694 16.0176C101.014 15.2116 100.068 14.8086 98.8549 14.8086C97.7874 14.8086 96.9018 15.1108 96.1982 15.7154C95.4946 16.2947 95.0458 17.1134 94.8517 18.1713H89.7567C89.9993 16.6599 90.521 15.3123 91.3216 14.1285C92.1393 12.9257 93.2425 11.9625 94.5242 11.3325C95.8586 10.6524 97.3507 10.3123 99.0005 10.3123C100.699 10.3123 102.227 10.6776 103.586 11.4081C104.936 12.1059 106.061 13.1953 106.825 14.5441C107.601 15.9043 107.989 17.5038 107.989 19.3426V31.6222H102.822V28.6373ZM97.5084 27.7305C98.3575 27.7305 99.1824 27.5416 99.9831 27.1637C100.808 26.7859 101.487 26.2191 102.021 25.4635C102.555 24.7078 102.822 23.8136 102.822 22.7809V22.6297H97.9815C96.8169 22.6297 95.9435 22.869 95.3612 23.3476C94.8032 23.8262 94.5242 24.4559 94.5242 25.2368C94.5242 25.9924 94.7789 26.597 95.2884 27.0504C95.8222 27.5038 96.5622 27.7305 97.5084 27.7305ZM118.734 15.0353V31.6222H113.567V15.0353H111.274V10.6902H113.567V9.63224C113.567 7.06297 114.27 5.1738 115.677 3.96474C117.085 2.75567 119.208 2.18892 122.046 2.26448V6.72292C120.809 6.69773 119.948 6.91184 119.462 7.36524C118.977 7.81864 118.734 8.63728 118.734 9.82116V10.6902H125.356V5.51385H130.487V10.6902H135V15.0353H130.487V25.1612C130.487 25.8665 130.645 26.3829 130.96 26.7103C131.3 27.0126 131.858 27.1637 132.634 27.1637H135V31.6222H131.797C127.503 31.6222 125.356 29.4559 125.356 25.1234V15.0353H118.734Z" fill="white"/>
</svg>
