<svg width="100" height="100" viewBox="0 0 100 100" fill="none" xmlns="http://www.w3.org/2000/svg">
<circle cx="50" cy="50" r="50" fill="black"/>
<path d="M22.376 41.728C23.528 40.0213 25.1067 38.6347 27.112 37.568C29.16 36.5013 31.4853 35.968 34.088 35.968C37.1173 35.968 39.848 36.7147 42.28 38.208C44.7547 39.7013 46.696 41.8347 48.104 44.608C49.5547 47.3387 50.28 50.5173 50.28 54.144C50.28 57.7707 49.5547 60.992 48.104 63.808C46.696 66.5813 44.7547 68.736 42.28 70.272C39.848 71.808 37.1173 72.576 34.088 72.576C31.4427 72.576 29.1173 72.064 27.112 71.04C25.1493 69.9733 23.5707 68.608 22.376 66.944V72H13.416V24.64H22.376V41.728ZM41.128 54.144C41.128 52.0107 40.68 50.176 39.784 48.64C38.9307 47.0613 37.7787 45.8667 36.328 45.056C34.92 44.2453 33.384 43.84 31.72 43.84C30.0987 43.84 28.5627 44.2667 27.112 45.12C25.704 45.9307 24.552 47.1253 23.656 48.704C22.8027 50.2827 22.376 52.1387 22.376 54.272C22.376 56.4053 22.8027 58.2613 23.656 59.84C24.552 61.4187 25.704 62.6347 27.112 63.488C28.5627 64.2987 30.0987 64.704 31.72 64.704C33.384 64.704 34.92 64.2773 36.328 63.424C37.7787 62.5707 38.9307 61.3547 39.784 59.776C40.68 58.1973 41.128 56.32 41.128 54.144ZM77.783 72L65.751 56.896V72H56.791V24.64H65.751V51.584L77.655 36.544H89.303L73.687 54.336L89.431 72H77.783Z" fill="#FFBB00"/>
</svg>
