<svg width="135" height="30" viewBox="0 0 135 30" fill="none" xmlns="http://www.w3.org/2000/svg">
<path d="M5.09499 11.7506C5.75006 10.7431 6.64775 9.92443 7.78805 9.29471C8.95262 8.66499 10.2749 8.35013 11.7549 8.35013C13.4775 8.35013 15.0302 8.79093 16.4131 9.67254C17.8203 10.5542 18.9242 11.8136 19.7249 13.4509C20.5498 15.063 20.9622 16.9395 20.9622 19.0806C20.9622 21.2217 20.5498 23.1234 19.7249 24.7859C18.9242 26.4232 17.8203 27.6952 16.4131 28.602C15.0302 29.5088 13.4775 29.9622 11.7549 29.9622C10.2506 29.9622 8.92836 29.66 7.78805 29.0554C6.67201 28.4257 5.77432 27.6196 5.09499 26.6373V29.6222H0V1.66247H5.09499V11.7506ZM15.7581 19.0806C15.7581 17.8212 15.5033 16.738 14.9938 15.8312C14.5086 14.8992 13.8535 14.194 13.0286 13.7154C12.2324 13.2379 11.3278 12.9901 10.4083 12.9975C9.48638 12.9975 8.61296 13.2494 7.78805 13.7531C6.98741 14.2317 6.33234 14.937 5.82284 15.869C5.33761 16.801 5.09499 17.8967 5.09499 19.1562C5.09499 20.4156 5.33761 21.5113 5.82284 22.4433C6.33234 23.3753 6.98741 24.0932 7.78805 24.597C8.61296 25.0756 9.48638 25.3149 10.4083 25.3149C11.3545 25.3149 12.228 25.063 13.0286 24.5592C13.8535 24.0554 14.5086 23.3375 14.9938 22.4055C15.5033 21.4736 15.7581 20.3652 15.7581 19.0806ZM27.2481 6.19647C26.3504 6.19647 25.5983 5.9068 24.9917 5.32746C24.4094 4.72292 24.1183 3.97985 24.1183 3.09824C24.1183 2.21662 24.4094 1.48615 24.9917 0.906801C25.5983 0.302267 26.3504 0 27.2481 0C28.1458 0 28.8858 0.302267 29.468 0.906801C30.0746 1.48615 30.3779 2.21662 30.3779 3.09824C30.3779 3.97985 30.0746 4.72292 29.468 5.32746C28.8858 5.9068 28.1458 6.19647 27.2481 6.19647ZM29.7592 8.69018V29.6222H24.6642V8.69018H29.7592ZM46.7303 29.6222L39.8885 20.7053V29.6222H34.7935V1.66247H39.8885V17.5693L46.6576 8.69018H53.281L44.4012 19.194L53.3538 29.6222H46.7303ZM53.7248 19.1562C53.7248 16.9899 54.1494 15.1008 54.9986 13.4887C55.8477 11.8514 57.0244 10.5919 58.5287 9.71033C60.0329 8.80353 61.7555 8.35013 63.6965 8.35013C66.1954 8.35013 68.2577 9.00504 69.8832 10.3149C71.533 11.5995 72.6369 13.4131 73.195 15.7557H67.7007C67.4095 14.8489 66.9122 14.1436 66.2086 13.6398C65.5292 13.1108 64.6801 12.8463 63.6611 12.8463C62.2054 12.8463 61.0529 13.4005 60.2038 14.5088C59.3546 15.5919 58.93 17.1411 58.93 19.1562C58.93 21.1461 59.3546 22.6952 60.2038 23.8035C61.0529 24.8867 62.2054 25.4282 63.6611 25.4282C65.7233 25.4282 67.0699 24.471 67.7007 22.5567H73.196C72.638 24.8237 71.534 26.6247 69.8842 27.9597C68.2344 29.2947 66.1722 29.9622 63.6975 29.9622C61.7565 29.9622 60.0339 29.5214 58.5297 28.6398C57.0374 27.7458 55.8149 26.4373 54.9996 24.8615C54.1504 23.2242 53.7258 21.3224 53.7258 19.1562H53.7248ZM81.0123 11.9395C81.6371 10.8622 82.5132 9.96558 83.5598 9.33249C84.6273 8.70277 85.8404 8.38791 87.1991 8.38791V13.9421H85.8526C84.2513 13.9421 83.0382 14.3325 82.2133 15.1134C81.4127 15.8942 81.0123 17.2544 81.0123 19.194V29.6222H75.9174V8.69018H81.0123V11.9395ZM102.822 26.6373C102.264 27.5945 101.354 28.4005 100.092 29.0554C98.8306 29.6851 97.472 30 96.0163 30C94.7547 30 93.6143 29.7355 92.5954 29.2065C91.5764 28.6776 90.7757 27.9471 90.1934 27.0151C89.6111 26.0831 89.32 25.0126 89.32 23.8035C89.32 21.864 90.0115 20.2771 91.3944 19.0428C92.8016 17.8086 94.9002 17.1914 97.6903 17.1914H102.822C102.773 15.8564 102.397 14.7985 101.694 14.0176C101.014 13.2116 100.068 12.8086 98.8549 12.8086C97.7874 12.8086 96.9018 13.1108 96.1982 13.7154C95.4946 14.2947 95.0458 15.1134 94.8517 16.1713H89.7567C89.9993 14.66 90.521 13.3123 91.3216 12.1285C92.1393 10.9257 93.2425 9.96253 94.5242 9.33249C95.8586 8.65239 97.3507 8.31234 99.0005 8.31234C100.699 8.31234 102.227 8.67758 103.586 9.40806C104.936 10.1059 106.061 11.1953 106.825 12.5441C107.601 13.9043 107.989 15.5038 107.989 17.3426V29.6222H102.822V26.6373ZM97.5084 25.7305C98.3575 25.7305 99.1824 25.5416 99.9831 25.1637C100.808 24.7859 101.487 24.2191 102.021 23.4635C102.555 22.7078 102.822 21.8136 102.822 20.7809V20.6297H97.9815C96.8169 20.6297 95.9435 20.869 95.3612 21.3476C94.8032 21.8262 94.5242 22.4559 94.5242 23.2368C94.5242 23.9924 94.7789 24.597 95.2884 25.0504C95.8222 25.5038 96.5622 25.7305 97.5084 25.7305ZM118.734 13.0353V29.6222H113.567V13.0353H111.274V8.69018H113.567V7.63224C113.567 5.06297 114.27 3.1738 115.677 1.96474C117.085 0.755668 119.208 0.188917 122.046 0.264484V4.72292C120.809 4.69773 119.948 4.91184 119.462 5.36524C118.977 5.81864 118.734 6.63728 118.734 7.82116V8.69018H125.356V3.51385H130.487V8.69018H135V13.0353H130.487V23.1612C130.487 23.8665 130.645 24.3829 130.96 24.7103C131.3 25.0126 131.858 25.1637 132.634 25.1637H135V29.6222H131.797C127.503 29.6222 125.356 27.4559 125.356 23.1234V13.0353H118.734Z" fill="white"/>
</svg>
